FFmpeg version SVN-r25716, Copyright (c) 2000-2010 the FFmpeg developers  built on Nov 10 2010 12:23:18 with gcc 4.1.2 20080704 (Red Hat 4.1.2-48)  configuration: --enable-libmp3lame --enable-shared --disable-mmx --arch=x86_64  libavutil     50.33. 0 / 50.33. 0  libavcore      0.12. 1 /  0.12. 1  libavcodec    52.94. 4 / 52.94. 4  libavformat   52.84. 0 / 52.84. 0  libavdevice   52. 2. 2 / 52. 2. 2  libavfilter    1.59. 0 /  1.59. 0  libswscale     0.12. 0 /  0.12. 0Input #0, avi, from '/RAID10/data/converted_video_files/47600.avi':  Duration: 00:00:09.70, start: 0.000000, bitrate: 188242 kb/s    Stream #0.0: Video: msvideo1, rgb555le, 1024x1024, 20 tbr, 20 tbn, 20 tbc[buffer @ 0xda67440] w:1024 h:1024 pixfmt:rgb555le[ffsink @ 0xda84d50] auto-inserting filter 'auto-inserted scaler 0' between the filter 'src' and the filter 'out'[scale @ 0xda85040] w:1024 h:1024 fmt:rgb555le -> w:1024 h:1024 fmt:yuv420p flags:0x4Output #0, flv, to '/RAID10/data/converted_video_files/47600.flv':  Metadata:    encoder         : Lavf52.84.0    Stream #0.0: Video: flv, yuv420p, 1024x1024, q=2-31, 600 kb/s, 1k tbn, 24 tbcStream mapping:  Stream #0.0 -> #0.0Press [q] to stop encodingframe=    7 fps=  0 q=14.3 size=    1605kB time=0.33 bitrate=39363.8kbits/s    frame=    9 fps=  7 q=20.1 size=    1670kB time=0.46 bitrate=29805.7kbits/s    frame=   16 fps=  9 q=31.0 size=    1775kB time=0.79 bitrate=18364.7kbits/s    frame=   24 fps= 10 q=31.0 size=    1840kB time=1.17 bitrate=12914.1kbits/s    frame=   33 fps= 11 q=31.0 size=    1911kB time=1.62 bitrate=9631.6kbits/s    frame=   43 fps= 12 q=31.0 size=    1993kB time=2.12 bitrate=7681.6kbits/s    frame=   52 fps= 13 q=31.0 size=    2085kB time=2.58 bitrate=6610.9kbits/s    frame=   61 fps= 14 q=24.8 size=    2149kB time=3.04 bitrate=5786.8kbits/s    frame=   70 fps= 14 q=31.0 size=    2203kB time=3.50 bitrate=5155.7kbits/s    frame=   78 fps= 14 q=31.0 size=    2295kB time=3.88 bitrate=4851.5kbits/s    frame=   86 fps= 14 q=31.0 size=    2380kB time=4.29 bitrate=4543.0kbits/s    frame=   93 fps= 14 q=31.0 size=    2409kB time=4.62 bitrate=4267.6kbits/s    frame=   99 fps= 14 q=31.0 size=    2470kB time=4.96 bitrate=4079.6kbits/s    frame=  108 fps= 14 q=31.0 size=    2521kB time=5.38 bitrate=3841.6kbits/s    frame=  116 fps= 14 q=31.0 size=    2616kB time=5.79 bitrate=3700.5kbits/s    frame=  124 fps= 14 q=31.0 size=    2695kB time=6.21 bitrate=3555.5kbits/s    frame=  132 fps= 14 q=31.0 size=    2728kB time=6.58 bitrate=3394.0kbits/s    frame=  141 fps= 14 q=31.0 size=    2803kB time=7.04 bitrate=3260.8kbits/s    frame=  150 fps= 15 q=31.0 size=    2892kB time=7.50 bitrate=3159.2kbits/s    frame=  159 fps= 15 q=31.0 size=    2973kB time=7.96 bitrate=3060.3kbits/s    frame=  168 fps= 15 q=31.0 size=    3065kB time=8.38 bitrate=2998.2kbits/s    frame=  176 fps= 15 q=31.0 size=    3154kB time=8.79 bitrate=2938.7kbits/s    frame=  184 fps= 15 q=31.0 size=    3227kB time=9.21 bitrate=2870.5kbits/s    frame=  192 fps= 15 q=31.0 size=    3267kB time=9.58 bitrate=2792.9kbits/s    frame=  194 fps= 15 q=31.0 Lsize=    3305kB time=9.71 bitrate=2789.3kbits/s    video:3302kB audio:0kB global headers:0kB muxing overhead 0.098003%